<svg xmlns="http://www.w3.org/2000/svg" xmlns:xlink="http://www.w3.org/1999/xlink" xmlns:inkscape="http://www.inkscape.org/namespaces/inkscape" version="1.1" width="632.2411" height="205.87723" viewBox="0 0 632.2411 205.87723">
<defs>
<clipPath id="clip_1">
<path transform="matrix(1,0,0,-1,-65.4149,397.338)" d="M65.4149 191.46079H697.656V397.338H65.4149Z" clip-rule="evenodd"/>
</clipPath>
<clipPath id="clip_2">
<path transform="matrix(1,0,0,-1,-65.4149,397.338)" d="M0 612H792V0H0Z"/>
</clipPath>
<clipPath id="clip_3">
<path transform="matrix(1,0,0,-1,-65.4149,397.338)" d="M0 612H792V0H0Z"/>
</clipPath>
</defs>
<g clip-path="url(#clip_1)">
<g inkscape:groupmode="layer" inkscape:label="Guides">
</g>
<g inkscape:groupmode="layer" inkscape:label="Center to">
</g>
<g inkscape:groupmode="layer" inkscape:label="Logo">
<g clip-path="url(#clip_2)">
<path transform="matrix(1,0,0,-1,3.9929963,184.95331)" d="M0 0V0C2.207-1.19 4.949-.635 6.518 1.321L51.158 56.958C55.605 62.5 63.619 63.574 69.367 59.399L81.599 50.515C83.725 48.971 86.549 48.787 88.858 50.041 91.836 51.659 93.173 55.219 91.997 58.397L72.155 111.984C69.935 117.979 61.726 118.658 58.552 113.108L-2.043 7.151C-3.493 4.617-2.57 1.386 0 0" fill="#26377a"/>
<path transform="matrix(1,0,0,-1,88.6248,67.4162)" d="M0 0V0C-2.129-1.325-3.007-3.982-2.088-6.315L24.057-72.682C26.661-79.292 23.616-86.783 17.138-89.701L3.355-95.911C.959-96.99-.603-99.351-.66-101.978-.733-105.366 1.694-108.294 5.037-108.85L61.406-118.22C67.712-119.269 72.375-112.479 69.133-106.969L7.222-1.775C5.741 .741 2.479 1.543 0 0" fill="#2f57a7"/>
<path transform="matrix(1,0,0,-1,148.5422,199.27591)" d="M0 0V0C-.069 2.507-1.919 4.606-4.397 4.99L-74.886 15.922C-81.907 17.011-86.836 23.42-86.085 30.485L-84.488 45.518C-84.211 48.131-85.46 50.671-87.699 52.046-90.587 53.82-94.339 53.203-96.507 50.597L-133.05 6.668C-137.138 1.753-133.631-5.7-127.238-5.682L-5.178-5.338C-2.259-5.33 .081-2.918 0 0" fill="#f5b31f"/>
<path transform="matrix(1,0,0,-1,451.0929,68.58621)" d="M0 0H15.543L-8.601-114.513H55.815L48.086-136.508-23.722-136.58C-32.036-136.589-38.237-128.922-36.491-120.793L-12.756-10.307C-11.465-4.294-6.15 0 0 0" fill="#26377a"/>
<path transform="matrix(1,0,0,-1,234.28539,126.13641)" d="M0 0 7.341 35.475H63.549C68.04 35.475 71.922 38.607 72.871 42.997L76.053 57.644V57.68H-.46C-8.288 57.68-15.049 52.202-16.672 44.544L-42.877-79.159V-79.16L-16.725-79.156-16.724-79.154-4.78-22.069H47.249C51.767-22.069 55.673-18.921 56.634-14.507L59.866 .014V.016Z" fill="#26377a"/>
<path transform="matrix(1,0,0,-1,380.1339,117.47162)" d="M0 0C-2.184-1.856-5.006-3.216-8.349-4.108-11.69-5.001-15.544-5.422-19.741-5.421H-43.296L-36.331 27.763H-13.373C-10.848 27.763-8.388 27.549-6.142 27.049-4.457 26.675-2.894 26.14-1.506 25.423 .577 24.344 2.261 22.874 3.455 20.861 4.646 18.846 5.362 16.254 5.364 12.869 5.363 9.495 4.703 6.716 3.524 4.42 2.638 2.697 1.457 1.239 0 0M-25.183-26.673C-20.853-26.673-17.208-27.131-14.199-27.973-11.941-28.605-10.042-29.452-8.462-30.48-6.094-32.025-4.433-33.966-3.327-36.309-2.225-38.652-1.689-41.417-1.689-44.567-1.689-44.613-1.689-44.659-1.689-44.705V-44.706C-1.704-48.472-2.456-51.683-3.792-54.401-4.796-56.44-6.13-58.207-7.756-59.724-10.194-61.998-13.299-63.711-16.916-64.856-20.531-66-24.654-66.573-29.083-66.573H-56.286L-47.867-26.673ZM25.668-6.145C30.05-.312 32.393 6.932 32.39 14.969 32.391 19.64 31.609 24.115 29.984 28.203 27.551 34.337 23.198 39.586 16.866 43.25 10.534 46.919 2.255 49.015-8.065 49.015H-57.771L-57.982 48.019-83.439-72.078C-83.634-72.995-83.727-73.909-83.727-74.808-83.727-78.32-82.301-81.573-79.961-83.947-77.624-86.321-74.348-87.826-70.68-87.825H-27.816C-20.022-87.825-12.789-86.926-6.306-85.124 3.415-82.423 11.464-77.678 17.08-70.882 19.886-67.486 22.078-63.582 23.562-59.198 25.047-54.814 25.824-49.953 25.824-44.635 25.825-37.848 23.626-31.768 20.175-26.916 17.396-23.01 13.81-19.89 9.877-17.802 16.495-15.233 21.85-11.233 25.668-6.145" fill="#26377a"/>
<path transform="matrix(1,0,0,-1,593.5611,151.59722)" d="M0 0-13.06 56.249C-13.373 57.591-15.241 57.702-15.71 56.406L-35.258 0ZM5.185-22.115H-42.81L-50.97-45.752C-52.735-50.591-57.372-53.78-62.521-53.698L-80.971-53.402-37.796 70.916C-35.275 78.175-28.454 83.056-20.77 83.101L-7.446 83.178C1.145 83.227 8.592 77.241 10.391 68.84L38.18-53.678H21.717C16.016-53.678 11.089-49.695 9.896-44.12Z" fill="#26377a"/>
</g>
</g>
<g inkscape:groupmode="layer" inkscape:label="State">
<g clip-path="url(#clip_3)">
<path transform="matrix(1,0,0,-1,345.7638,40.424928)" d="M0 0-.44 4.784C-2.035 1.979-5.555-.44-10.559-.44-15.454-.44-19.578 1.265-22.988 4.619-26.342 7.974-28.047 12.868-28.047 19.248-28.047 25.626-26.342 30.521-22.877 33.875-19.413 37.23-15.234 38.935-10.229 38.935-6.215 38.935-2.86 37.835-.165 35.635 2.529 33.491 4.289 30.631 5.114 27.057L-.44 25.352C-2.255 30.576-5.555 33.216-10.229 33.216-17.104 33.216-21.888 28.266-21.888 19.248-21.888 10.009-17.213 5.279-10.229 5.279-4.51 5.279-1.266 9.019-.771 14.078H-8.249V19.413H5.279V0Z" fill="#2f57a7"/>
<path transform="matrix(1,0,0,-1,363.2013,23.377106)" d="M0 0H13.474C12.979 3.464 10.669 6.049 6.765 6.049 3.08 6.049 .66 3.574 0 0M19.522-4.785H-.11C-.11-9.129 2.42-12.429 6.765-12.429 9.844-12.429 12.648-10.669 14.023-7.754L18.918-9.679C16.113-15.123 12.868-17.488 6.765-17.488-2.364-17.488-6.159-9.789-6.159-3.189-6.159 3.409-2.364 11.108 6.765 11.108 15.618 11.108 19.522 3.904 19.522-2.31Z" fill="#2f57a7"/>
<path transform="matrix(1,0,0,-1,394.2765,26.566498)" d="M0 0C0-2.53 .66-4.729 1.979-6.544 3.354-8.359 5.225-9.239 7.589-9.239 9.954-9.239 11.823-8.359 13.144-6.544 14.518-4.729 15.178-2.53 15.178 0 15.178 2.529 14.518 4.674 13.144 6.489 11.823 8.304 9.954 9.238 7.589 9.238 5.225 9.238 3.354 8.304 1.979 6.489 .66 4.674 0 2.529 0 0M-6.049 0C-6.049 4.014-4.84 7.424-2.364 10.173 .11 12.923 3.465 14.298 7.589 14.298 11.714 14.298 15.013 12.923 17.487 10.173 19.962 7.424 21.228 4.014 21.228 0 21.228-4.015 19.962-7.424 17.487-10.174 15.013-12.923 11.714-14.298 7.589-14.298 3.465-14.298 .11-12.923-2.364-10.174-4.84-7.424-6.049-4.015-6.049 0" fill="#2f57a7"/>
<path transform="matrix(1,0,0,-1,427.33119,40.424928)" d="M0 0H-5.719V27.716H0V23.097C1.814 26.341 5.114 28.156 8.194 28.156 9.459 28.156 10.613 27.937 11.714 27.496L10.724 22.272C9.844 22.822 8.744 23.097 7.479 23.097 5.444 23.097 3.685 21.997 2.2 19.742 .715 17.542 0 14.408 0 10.284Z" fill="#2f57a7"/>
<path transform="matrix(1,0,0,-1,456.58998,21.562623)" d="M0 0C0 2.695-1.76 4.51-4.399 4.51-6.983 4.51-8.743 2.695-8.743 0-8.743-2.694-6.983-4.509-4.399-4.509-1.76-4.509 0-2.694 0 0M-7.039-17.873C-8.028-17.873-8.964-17.817-9.844-17.708-10.668-18.532-11.054-19.687-11.054-21.062-11.054-23.867-8.523-25.571-4.344-25.571-.385-25.571 1.979-24.032 1.979-21.392 1.979-19.027 .44-17.873-2.584-17.873ZM-11.493 6.764C-9.623 8.469-7.259 9.294-4.399 9.294-2.584 9.294-.88 8.909 .66 8.084L5.774 10.834 8.084 6.709 4.345 4.62C5.17 3.245 5.555 1.705 5.555 0 5.555-2.859 4.619-5.114 2.75-6.819 .88-8.469-1.484-9.293-4.399-9.293-5.994-9.293-7.479-9.019-8.854-8.469-9.844-9.019-10.339-9.844-10.339-10.888-10.339-12.318-9.403-13.033-7.479-13.033H-1.375C4.18-13.033 7.81-15.838 7.81-20.952 7.81-24.197 6.654-26.562 4.29-28.156 1.979-29.751-.88-30.521-4.344-30.521-11.604-30.521-16.553-27.276-16.553-21.392-16.553-19.137-15.782-17.268-14.188-15.783-15.232-14.738-15.782-13.253-15.782-11.438-15.782-8.964-14.683-7.094-12.428-5.829-13.693-4.289-14.298-2.364-14.298 0-14.298 2.805-13.363 5.06-11.493 6.764" fill="#2f57a7"/>
<path transform="matrix(1,0,0,-1,-65.4149,397.338)" d="M535.482 384.629H541.201V356.913H535.482ZM535.537 395.243C537.077 396.838 539.606 396.838 541.146 395.243 542.687 393.703 542.687 391.173 541.146 389.634 539.661 388.149 537.021 388.149 535.482 389.634 533.997 391.173 533.997 393.703 535.537 395.243" fill="#2f57a7"/>
<path transform="matrix(1,0,0,-1,491.9015,35.805818)" d="M0 0C1.925 0 3.629 .605 5.06 1.815 6.544 3.08 7.259 4.785 7.259 7.039V7.644H2.255C-1.265 7.644-3.465 5.995-3.465 3.355-3.465 1.375-2.255 0 0 0M2.475 12.429H7.259V13.639C7.259 16.938 5.004 18.478 1.869 18.478-.66 18.478-2.365 17.268-3.3 14.793L-8.524 15.893C-7.369 20.567-3.354 23.537 1.925 23.537 9.294 23.537 12.979 19.908 12.979 12.594V-4.619H8.139L7.589-.99C5.664-3.684 2.805-5.059-.99-5.059-5.885-5.059-9.514-2.145-9.514 3.355-9.514 9.019-4.729 12.429 2.475 12.429" fill="#2f57a7"/>
</g>
</g>
</g>
</svg>
