<svg id="Layer_1" data-name="Layer 1" xmlns="http://www.w3.org/2000/svg" viewBox="0 0 400 120"><defs><style>.cls-1{fill:#b81d2d;}.cls-2{fill:#039;}</style></defs><polygon class="cls-1" points="388.78 23.52 328.69 58.16 328.53 47.18 388.62 12.54 388.78 23.52"/><polygon class="cls-1" points="333.92 44.28 273.83 78.91 273.67 67.93 333.76 33.29 333.92 44.28"/><polygon class="cls-1" points="389.55 44.13 329.46 78.77 329.3 67.78 389.39 33.15 389.55 44.13"/><polygon class="cls-1" points="334.69 64.88 274.61 99.52 274.44 88.53 334.53 53.9 334.69 64.88"/><polyline class="cls-2" points="275.24 104.24 307 104.24 307 86.03"/><polyline class="cls-2" points="294.19 51.9 273.67 51.9 273.67 63.73"/><path d="M25.13,61.1c.45,0,.75.29.6.73V84.09c0,7-4.42,11.06-11.87,11.06-3.17,0-6.5-1-8.29-2.41a.82.82,0,0,1-.35-.87l2.44-6.62c.15-.43.59-.43.94-.19a6,6,0,0,0,3.72,1.2,3.24,3.24,0,0,0,3.33-3.18V61.83a.7.7,0,0,1,.75-.73Z"/><path d="M59.05,91.48c.15.34,0,.68-.45.87a20.93,20.93,0,0,1-10.42,2.8c-10.23,0-17.08-7-17.08-17.39S38,60.38,48.18,60.38a20.93,20.93,0,0,1,10.42,2.8c.4.19.6.53.45.87l-3.28,6.71a.65.65,0,0,1-.94.39,11.19,11.19,0,0,0-5.76-1.35c-4.47,0-7.45,3.18-7.45,8s3,8,7.45,8a11.29,11.29,0,0,0,5.76-1.35.65.65,0,0,1,.94.39Z"/><path d="M92.77,61.1a.72.72,0,0,1,.74.73V93.75a.71.71,0,0,1-.74.68H83.48a.7.7,0,0,1-.69-.68V82.93h-7V93.75a.72.72,0,0,1-.75.68H65.81a.74.74,0,0,1-.7-.68V61.83a.75.75,0,0,1,.7-.73h9.28a.73.73,0,0,1,.75.73v12.6h7V61.83a.71.71,0,0,1,.69-.73Z"/><path d="M103.05,84.28c.15-.48.5-.62.9-.38a19.3,19.3,0,0,0,6.9,2.32c1.59,0,2.63-.73,2.63-1.84,0-2.85-14-2.7-14-13.23,0-6.47,5-10.77,12.56-10.77a21.92,21.92,0,0,1,11.12,3.48c.4.24.55.62.4.86l-3.13,6.81c-.15.49-.5.63-.89.39a20.4,20.4,0,0,0-7-2.51c-1.53,0-2.53.68-2.53,1.74,0,2.85,14,2.65,14,13.28,0,6.42-5.11,10.72-12.76,10.72-4.17,0-8.54-1.26-11-3.19-.4-.29-.55-.63-.4-.87Z"/><path d="M162.64,61.1a.71.71,0,0,1,.74.68v7.29a.69.69,0,0,1-.74.73H150v4.39h10a.59.59,0,0,1,.64.63L160,81.58a.87.87,0,0,1-.85.63H150V93.75a.75.75,0,0,1-.75.68h-8.79a.75.75,0,0,1-.69-.73V61.78a.7.7,0,0,1,.69-.68Z"/><path d="M184.34,61.1c6.5,0,10.82,3.77,10.82,9.42,0,3.48-1.73,6-4.41,6.81,3.12.77,5.16,3.67,5.16,7.68,0,5.65-4.32,9.42-10.78,9.42H169.4a.7.7,0,0,1-.7-.68V61.83a.75.75,0,0,1,.7-.73Zm-2.28,13.09a2.23,2.23,0,1,0,0-4.44h-3.13v4.44ZM183,85.78a2.32,2.32,0,1,0,0-4.64h-4v4.64Z"/><path d="M221.48,85.73a.66.66,0,0,1,.65.68l-.69,7.34a.85.85,0,0,1-.8.68H202.72a.75.75,0,0,1-.75-.68V61.83a.76.76,0,0,1,.75-.73h8.78a.76.76,0,0,1,.75.73v23.9Z"/><path d="M259.82,93.8a.44.44,0,0,1-.45.63h-9.83a1.17,1.17,0,0,1-1-.63L247,88.73h-9.34l-1.48,5.07a1.18,1.18,0,0,1-1.05.63h-9.83a.43.43,0,0,1-.44-.63l11.22-32.07a1.51,1.51,0,0,1,1.19-.63h10.13a1.52,1.52,0,0,1,1.19.63ZM242.34,72.65l-2.68,9.17H245Z"/></svg>